<svg version="1.2" baseProfile="tiny-ps" xmlns="http://www.w3.org/2000/svg" viewBox="0 0 2646 2000" width="2646" height="2000">
	<title>6151-ai</title>
	<style>
		tspan { white-space:pre }
		.shp0 { fill: #b3ebf5 } 
		.shp1 { fill: #93e3f1 } 
		.shp2 { fill: #c4f3fb } 
		.shp3 { fill: #9feef7 } 
		.shp4 { fill: #ccf6fe } 
		.shp5 { fill: #c4dfe8 } 
		.shp6 { fill: #e03268 } 
		.shp7 { fill: #ff5b7e } 
		.shp8 { fill: #f9537f } 
		.shp9 { fill: #ff85a5 } 
		.shp10 { fill: #ffc0bb } 
		.shp11 { fill: #3d3a55 } 
		.shp12 { fill: #ffffff } 
		.shp13 { fill: #e87b50 } 
		.shp14 { fill: #07085b } 
		.shp15 { fill: #f99893 } 
		.shp16 { fill: #333333 } 
		.shp17 { fill: #050849 } 
		.shp18 { fill: #daeef7 } 
		.shp19 { fill: #feb546 } 
		.shp20 { fill: #f4a640 } 
		.shp21 { fill: #2b1c35 } 
		.shp22 { fill: #3a2645 } 
		.shp23 { fill: #ed9935 } 
		.shp24 { fill: #db962c } 
		.shp25 { fill: #2a2c8c } 
		.shp26 { fill: #55769f } 
		.shp27 { fill: #02ccc0 } 
		.shp28 { fill: #06bfad } 
		.shp29 { fill: #06b8a6 } 
	</style>
	<g id="Layer 1">
		<g id="&lt;Group&gt;">
			<g id="&lt;Group&gt;">
				<g id="&lt;Group&gt;" style="opacity: 0.2">
					<path id="&lt;Path&gt;" class="shp0" d="M2402.89 1837.02L291 1837.02C264.77 1786.75 252.36 1728.98 261.03 1669.31C267.39 1625.57 355.12 1582.8 334.45 1503.14C295.26 1352.18 330.06 1249.06 449.09 1086.9C584.18 902.86 671.45 892.67 697.3 767.03C706.19 723.81 697.78 681.77 696.07 639.26C692.66 554.7 720.78 459.06 793.32 397.54C872.82 330.12 982.63 319.97 1081.34 318.56C1141.64 317.7 1202.49 318.7 1258.01 334.19C1375.52 366.98 1454.65 459.63 1554.92 521.17C1623.96 563.53 1704.1 591.37 1789.25 602.55C1837.52 608.89 1888.45 610.22 1930.83 629.57C2003.42 662.7 2035.74 741.12 2054.92 817.01C2074.09 892.91 2086.3 974.46 2135.64 1033.57C2183.12 1090.45 2259.06 1119.08 2315.96 1167.45C2404.05 1242.34 2441.11 1361.02 2443.25 1480.82C2445.37 1599.28 2410.68 1718.59 2402.89 1837.02Z" />
				</g>
				<g id="&lt;Group&gt;" style="opacity: 0.2">
					<path id="&lt;Path&gt;" class="shp1" d="M355.65 993.09C409.08 972.86 411.96 1064.06 411.79 1088.63C431.55 1095.99 449.13 1104.47 464.58 1113.34C453.75 1085.47 428.87 1072.22 427.19 1052.68C425.3 1030.77 437.1 1006.84 465.81 1034.08C488.55 1055.66 476.54 1099.56 470.57 1116.87C497.04 1132.8 516.87 1149.61 530.57 1163.13C522.52 1129.18 495.39 1110.47 495.77 1088.07C496.19 1063.57 511.89 1038.87 540.33 1073.25C563.84 1101.67 543.01 1151.31 535.08 1167.69C547.33 1180.35 553.56 1189.26 554.22 1190.22C566.89 1208.15 578.18 1226.11 588.25 1243.95C581.81 1213.88 561.73 1193.04 564.58 1172.8C568 1148.51 586.51 1126.47 610.35 1165.19C629.21 1195.82 605.62 1239.28 594.94 1256.11C615.15 1293.87 629.93 1330.91 640.72 1365.85C644.02 1337.21 630.24 1294.09 641.44 1269.01C648.78 1252.55 660.22 1250.46 668.59 1251.63C675.74 1252.63 681.88 1257.28 685.58 1264.26C706.45 1303.7 657.97 1357.07 642.72 1372.42C655.53 1415.58 662.25 1455.32 665.55 1488.89C667.38 1474.1 670.04 1451.75 670.96 1440.09C672.41 1421.7 682.84 1397.54 696.89 1389.67C697.48 1389.34 698.06 1389.05 698.63 1388.78C709.61 1383.6 721.91 1388.96 727.94 1400.31C751.55 1444.74 681.95 1491.96 666.67 1501.63C666.69 1501.86 666.71 1502.1 666.73 1502.33C673.16 1587.12 660.29 1643.52 659.74 1645.88L652.15 1643.78C652.28 1643.24 664.49 1589.53 659.38 1510.17C588.74 1487.05 576.88 1435.76 589.7 1420.02C602.94 1403.75 632.16 1402.53 639.12 1439.25C643.16 1460.55 651.76 1481.73 658.28 1495.78C655.28 1461.96 648.74 1421.26 635.66 1376.83C537.04 1383.61 540.51 1313.77 562.48 1301.57C584.71 1289.21 598.66 1302.12 609.6 1330.97C616.86 1350.13 627.54 1363.91 633.92 1371.03C623.45 1336.72 609.05 1300.3 589.35 1263.13C575.37 1275.71 537.64 1305.1 509.79 1284.5C475 1258.76 493.61 1236.84 514.76 1232.04C534.21 1227.63 555.34 1255.02 586.47 1257.75C575.34 1237.26 562.62 1216.57 548.02 1195.92C547.79 1195.57 535.28 1177.69 509.5 1155.72C496.83 1170.3 462.72 1204.38 432.87 1188.12C395.39 1167.69 411.49 1143.34 432.01 1135.54C450.32 1128.58 473.52 1151 503.47 1150.7C481.2 1132.66 450.3 1112.67 410.32 1097.6C397.07 1112.62 363.7 1145.06 334.45 1129.12C296.96 1108.7 313.06 1084.34 333.58 1076.54C352.15 1069.48 375.75 1092.66 406.31 1091.69L406.58 1090.79C397.22 1083.76 377.31 1068.94 367.45 1062.41C354.3 1053.71 341.27 1033.87 342.34 1016.88C343.05 1005.56 347.49 997.63 355.65 993.09Z" />
				</g>
				<g id="&lt;Group&gt;">
					<path id="&lt;Path&gt;" class="shp2" d="M379.1 1413.72L259.97 1416.53C230.34 1367.75 204.51 1322.07 182.48 1279.5C315.64 1242.91 429.64 1250.9 525.69 1283.29L583.06 1407.65L590.14 1309.76C749.85 1387.52 865.6 1514.26 937.4 1689.98C660.14 1672.09 491.68 1650.76 432.02 1625.99C397.47 1611.64 352.4 1556.72 310.08 1494.69C330.4 1473.67 353.41 1446.68 379.1 1413.72Z" />
				</g>
				<g id="&lt;Group&gt;">
					<path id="&lt;Path&gt;" class="shp3" d="M182.48 1279.5C543.1 1413.84 794.74 1550.66 937.4 1689.98C660.14 1672.09 491.68 1650.76 432.02 1625.99C397.47 1611.64 352.4 1556.72 310.08 1494.69C330.4 1473.67 353.41 1446.68 379.1 1413.72L259.97 1416.53C230.34 1367.75 204.51 1322.07 182.48 1279.5Z" />
				</g>
				<g id="&lt;Group&gt;">
					<path id="&lt;Path&gt;" class="shp4" d="M159.91 1420.21C181.15 1381.68 228.38 1433.73 240.55 1448.23C255.81 1442.68 270.36 1438.87 283.85 1436.36C263.58 1425.42 242.38 1430.07 231.63 1419.45C219.58 1407.54 214.55 1387.62 244.99 1389.26C269.11 1390.56 283.98 1422.31 289.13 1435.44C312.6 1431.57 332.63 1431.52 347.41 1432.62C325.74 1416.72 300.49 1419.3 289.53 1405.97C277.53 1391.39 274.4 1369.07 308.25 1375.03C336.23 1379.96 348.81 1419.47 352.34 1433.04C365.84 1434.35 373.95 1436.46 374.81 1436.7C391.2 1440.89 406.79 1445.78 421.6 1451.22C402.81 1436.8 380.62 1434.6 372.19 1421.31C362.06 1405.36 361.91 1383.19 395.23 1394C421.59 1402.54 429.46 1439.81 431.6 1455.01C462.3 1467.07 489.47 1481.41 513.24 1496.51C500.88 1478.07 471.26 1459.67 465.3 1439.36C461.4 1426.04 467.06 1419.1 472.55 1415.62C477.24 1412.64 483.17 1412.29 488.82 1414.54C520.76 1427.25 518.98 1482.76 517.7 1499.37C546.77 1518.29 570.55 1538.24 589.25 1556.28C582.93 1546.69 573.34 1532.26 568.05 1524.96C559.72 1513.45 553.77 1494.08 558.09 1482.44C558.27 1481.96 558.46 1481.5 558.66 1481.05C562.51 1472.53 572.4 1469.54 581.61 1473.18C617.64 1487.45 600.4 1549.89 596.27 1563.19C596.4 1563.32 596.53 1563.45 596.65 1563.57C642.76 1610.09 663.38 1649.6 664.24 1651.25L658.74 1653.81C658.54 1653.43 638.89 1615.83 596.26 1571.84C543.28 1593.55 510.71 1569.39 510.37 1553.76C510.01 1537.6 526.55 1522.3 548.97 1540.37C561.97 1550.84 577.59 1558.97 588.43 1563.95C569.78 1545.61 545.62 1525.01 515.76 1505.48C461.31 1558.7 428.47 1516 435.26 1497.88C442.13 1479.53 456.76 1480.14 477.58 1491.6C491.4 1499.21 504.55 1501.96 511.84 1502.95C488.57 1488.06 461.93 1473.88 431.83 1461.92C429.91 1476.28 422.45 1512.35 395.84 1514.17C362.58 1516.45 362.55 1494.3 372.55 1480.92C381.76 1468.63 407.83 1474.14 427.45 1460.21C410.69 1453.74 392.9 1447.96 374.02 1443.13C373.71 1443.05 357.45 1438.8 331.36 1438.79C331.21 1453.66 328.22 1490.68 302.59 1496.05C270.41 1502.78 267.69 1480.46 275.83 1465.64C283.09 1452.42 307.9 1453.98 325.31 1438.85C303.24 1439.39 275.14 1443.09 244.16 1454.22C243.9 1469.64 240.53 1505.33 215.41 1510.58C183.23 1517.32 180.5 1494.99 188.64 1480.18C196.01 1466.77 221.43 1468.58 238.86 1452.75L238.57 1452.09C229.57 1452.64 210.5 1453.89 201.46 1454.98C189.39 1456.44 171.84 1451.31 163.99 1440.82C158.75 1433.82 157.4 1426.95 159.91 1420.21Z" />
				</g>
				<g id="&lt;Group&gt;">
					<path id="&lt;Path&gt;" class="shp2" d="M214.35 1636.29C284.12 1589.72 355.35 1563.39 424.85 1551.17C439.21 1567.58 455.19 1585.42 472.79 1604.68L472.95 1544.88C651.37 1529.28 817.14 1578.27 970.25 1691.85C819.04 1796.2 687.69 1828.71 578.81 1824.49C573.94 1810.74 568.04 1793.61 561.11 1773.09L543.94 1821.85C491.58 1815.89 445 1801.58 404.53 1783.4C410.6 1766.54 416.81 1748.48 423.15 1729.22L366.73 1764.45C300.52 1727.68 249.73 1684.96 214.35 1636.29Z" />
				</g>
				<g id="&lt;Group&gt;">
					<path id="&lt;Path&gt;" class="shp3" d="M578.81 1824.49C573.94 1810.74 568.04 1793.61 561.11 1773.09L543.94 1821.85C491.58 1815.89 445 1801.58 404.53 1783.4C410.6 1766.54 416.81 1748.48 423.15 1729.22L366.73 1764.45C300.52 1727.68 249.73 1684.96 214.35 1636.29C421.63 1603.55 673.59 1622.07 970.25 1691.85C819.04 1796.2 687.69 1828.71 578.81 1824.49Z" />
				</g>
				<g id="&lt;Group&gt;">
					<path id="&lt;Path&gt;" class="shp4" d="M2237.68 441.49C2190.25 410.83 2168.47 498.39 2163.52 522.18C2142.89 525.18 2124.12 529.71 2107.34 535.08C2123.61 510.39 2150.42 502.76 2156.12 484.22C2162.51 463.43 2156.08 437.84 2122.66 458.2C2096.17 474.33 2098.65 519.27 2100.82 537.25C2071.91 547.13 2049.24 559.25 2033.18 569.47C2048.03 538.33 2078.15 525.89 2082.45 504.16C2087.14 480.38 2077.12 453.24 2042.46 480.55C2013.82 503.13 2023.61 555.46 2027.87 572.94C2013.4 582.63 2005.51 589.95 2004.67 590.74C1988.69 605.44 1974.04 620.45 1960.6 635.6C1973.07 607.87 1996.83 591.9 1998.29 571.74C2000.04 547.55 1986.74 522.39 1955.63 554.86C1931.02 580.54 1944.77 627.47 1951.59 645.97C1924.2 678.26 1902.19 710.99 1884.49 742.52C1887.26 714.15 1909.56 675.33 1903.96 648.75C1900.28 631.31 1889.66 626.91 1881.33 626.3C1874.21 625.78 1867.3 629 1862.28 634.97C1833.88 668.76 1869.64 730.45 1881.19 748.46C1859.82 787.52 1845.04 824.53 1834.87 856.3C1836.18 841.62 1838.26 819.47 1839.8 808C1842.22 789.91 1837.17 764.39 1825.22 753.86C1824.73 753.42 1824.23 753.01 1823.73 752.63C1814.2 745.34 1801.19 747.96 1792.99 757.68C1760.93 795.72 1818.37 855.85 1831.13 868.38C1831.07 868.6 1830.99 868.83 1830.93 869.05C1807.06 949.68 1807.76 1006.88 1807.8 1009.28L1815.57 1008.83C1815.56 1008.28 1814.94 953.81 1836.4 878.16C1909.51 870.51 1931.65 823.4 1922.54 805.51C1913.12 787.02 1885.12 779.77 1870.75 813.82C1862.41 833.57 1849.69 852.25 1840.46 864.47C1850.4 832.4 1865.2 794.42 1887.1 754.19C1981.02 781.27 1992.21 713.04 1973.51 696.67C1954.59 680.1 1938.41 689.67 1921.84 715.28C1910.83 732.29 1897.63 743.39 1889.98 748.95C1907.25 717.96 1928.76 685.74 1955.53 653.92C1966.43 668.98 1996.79 705.25 2027.99 691.13C2067 673.49 2053.56 648.43 2034.12 639.39C2016.24 631.07 1990.1 653.15 1959.44 649.31C1974.46 631.82 1991.07 614.47 2009.48 597.54C2009.78 597.25 2025.6 582.57 2055.09 566.7C2064.31 583.43 2090.19 623.48 2122.43 613.97C2162.92 602.02 2152.42 575.12 2134.21 563.31C2117.96 552.78 2090.86 569.63 2061.97 563.1C2087.26 550.29 2121.29 537.4 2163.08 531.15C2172.76 548.43 2198.26 586.74 2229.86 577.42C2270.35 565.48 2259.86 538.58 2241.64 526.77C2225.16 516.08 2197.52 533.58 2168.18 526.28L2168.11 525.35C2178.62 520.51 2200.95 510.32 2211.84 506.06C2226.37 500.38 2243.1 483.91 2245.6 467.27C2247.27 456.18 2244.63 447.59 2237.68 441.49Z" />
				</g>
				<g id="&lt;Group&gt;">
					<path id="&lt;Path&gt;" class="shp4" d="M1650.28 149.06C1695.93 147.68 1674.38 217.37 1667.85 235.9C1680.87 246.61 1691.96 257.59 1701.33 268.31C1700.39 244.43 1685.04 227.94 1688.85 212.73C1693.12 195.67 1708.27 180.66 1722.88 208.72C1734.46 230.95 1713.96 261.01 1704.94 272.54C1720.8 291.47 1731.42 309.33 1738.26 323.12C1741.01 295.36 1725.37 274.16 1731.49 257.33C1738.18 238.91 1756.47 224.32 1769.03 257.71C1779.4 285.31 1750.74 317.43 1740.48 327.74C1746.44 340.5 1748.84 348.86 1749.09 349.76C1754 366.61 1757.86 383.12 1760.83 399.22C1763.79 374.82 1754.03 353.83 1761.45 339.28C1770.36 321.8 1790.08 309.96 1798.03 345.43C1804.32 373.49 1775.18 400.22 1762.72 410.16C1768.17 443.96 1769.71 475.81 1768.77 505.03C1778.72 484.24 1779.52 448.05 1794.52 432C1804.35 421.47 1813.55 422.87 1819.56 425.93C1824.71 428.55 1828.14 433.66 1829.12 439.9C1834.64 475.15 1784.1 502.88 1768.57 510.51C1767.02 546.48 1761.77 578.27 1755.52 604.5C1760.75 593.79 1768.58 577.6 1772.31 569.02C1778.2 555.49 1792.36 539.94 1805.04 537.65C1805.56 537.56 1806.08 537.48 1806.58 537.43C1816.23 536.37 1824.13 543.62 1825.74 553.77C1832.02 593.5 1767.12 611.09 1753.05 614.42C1753.01 614.6 1752.96 614.79 1752.92 614.97C1735.71 680.74 1711.3 720.03 1710.27 721.67L1705.08 718.11C1705.32 717.73 1728.53 680.31 1745.32 618.98C1697.93 583.13 1702.31 541.27 1716.1 532.7C1730.35 523.85 1752.76 530.54 1748.46 560.11C1745.97 577.26 1746.96 595.51 1748.23 607.82C1754.77 581.47 1760.41 549.01 1762.09 512.01C1685.77 491.48 1706.57 439.59 1726.35 436.08C1746.38 432.52 1753.56 445.91 1754.32 470.56C1754.82 486.94 1759.32 500.13 1762.28 507.18C1763.3 478.52 1761.89 447.23 1756.67 414.01C1742.83 419.88 1706.65 432.28 1690.97 409.47C1671.36 380.96 1691.13 369.23 1708.37 371.1C1724.22 372.83 1733.07 399.03 1755.89 409.19C1752.81 390.81 1748.58 371.86 1742.92 352.45C1742.83 352.13 1738.03 335.35 1724.26 312.04C1710.89 319.76 1676.23 336.65 1657.9 316.59C1634.88 291.4 1653.39 277.17 1670.93 276.62C1686.58 276.12 1698.29 299.11 1721.01 306.67C1708.86 287.24 1690.71 264.09 1664.41 242.29C1650.48 250.2 1616.81 266.05 1598.84 246.39C1575.82 221.19 1594.33 206.97 1611.88 206.41C1627.75 205.91 1639.55 229.57 1662.91 236.79L1663.35 236.17C1658.1 228.43 1646.91 212.04 1641.16 204.54C1633.48 194.54 1628.79 176.15 1634.02 163.59C1637.51 155.22 1642.93 150.38 1650.28 149.06Z" />
				</g>
				<g id="&lt;Group&gt;" style="opacity: 0.502">
					<g id="&lt;Group&gt;">
						<path id="&lt;Path&gt;" class="shp2" d="M2119.58 929.41L2230.42 885.66C2238.74 829.19 2244.77 777.07 2248.5 729.28C2111.59 747.37 2009.68 799.07 1933.8 866.27L1929.33 1003.15L1884.72 915.72C1767.84 1049.47 1710.52 1211.25 1712.74 1401.06C1961.21 1276.74 2108.1 1191.57 2153.42 1145.54C2179.66 1118.89 2199.82 1050.76 2214.67 977.15C2187.78 965.69 2156.08 949.78 2119.58 929.41Z" />
					</g>
					<g id="&lt;Group&gt;">
						<path id="&lt;Path&gt;" class="shp3" d="M2248.5 729.28C1968.55 993.3 1789.97 1217.23 1712.74 1401.06C1961.21 1276.74 2108.1 1191.57 2153.42 1145.54C2179.66 1118.89 2199.82 1050.76 2214.67 977.15C2187.78 965.69 2156.08 949.78 2119.58 929.41L2230.42 885.66C2238.74 829.19 2244.77 777.07 2248.5 729.28Z" />
					</g>
					<g id="&lt;Group&gt;">
						<path id="&lt;Path&gt;" class="shp2" d="M2357.95 1070.37C2275.56 1054.6 2199.69 1058.05 2130.92 1073.83C2124.07 1094.53 2116.29 1117.18 2107.57 1141.77L2084.15 1086.74C1913.72 1141.77 1780.07 1251.38 1683.21 1415.57C1863.11 1452.87 1996.76 1431.73 2095.42 1385.5C2094.56 1370.94 2093.33 1352.86 2091.74 1331.27L2126.52 1369.5C2172.44 1343.65 2209.78 1312.35 2239.99 1279.86C2227.83 1266.69 2215.09 1252.46 2201.75 1237.19L2267.44 1247.7C2314.13 1188.07 2344.3 1128.96 2357.95 1070.37Z" />
					</g>
					<g id="&lt;Group&gt;">
						<path id="&lt;Path&gt;" class="shp3" d="M2095.42 1385.5C2094.56 1370.94 2093.33 1352.86 2091.74 1331.27L2126.52 1369.5C2172.44 1343.65 2209.78 1312.35 2239.99 1279.86C2227.83 1266.69 2215.09 1252.46 2201.75 1237.19L2267.44 1247.7C2314.13 1188.07 2344.3 1128.96 2357.95 1070.37C2154.27 1120.82 1929.35 1235.89 1683.21 1415.57C1863.11 1452.87 1996.76 1431.73 2095.42 1385.5Z" />
					</g>
				</g>
				<g id="&lt;Group&gt;">
					<path id="&lt;Path&gt;" class="shp5" d="M248.22 1859.95L2444.49 1859.95C2449.26 1859.95 2453.13 1856.08 2453.13 1851.31L2453.13 1843.03C2453.13 1838.26 2449.26 1834.39 2444.49 1834.39L248.22 1834.39C243.45 1834.39 239.58 1838.26 239.58 1843.03L239.58 1851.31C239.58 1856.08 243.45 1859.95 248.22 1859.95Z" />
				</g>
				<g id="&lt;Group&gt;">
					<g id="&lt;Group&gt;">
						<path id="&lt;Path&gt;" class="shp6" d="M810.95 1439.64L1416.04 1439.64L1416.04 1190.76L810.95 1190.76L810.95 1439.64Z" />
					</g>
					<path id="&lt;Path&gt;" class="shp7" d="M1880.9 666.17C1875.87 666.53 1673.79 666.53 1274.64 666.17L1274.64 1234.2L1662.75 1234.2L1870.52 1026.59L1880.9 666.17Z" />
					<path id="&lt;Path&gt;" class="shp8" d="M823.09 985.31C1099.9 1001.84 1238.31 1001.84 1238.31 985.31C1238.31 968.78 1238.31 1004.79 1238.31 1093.32C1102.93 1117.58 1027.62 1129.71 1012.39 1129.71C989.54 1129.71 883.14 1186.06 869.04 1190.76C854.94 1195.46 824.65 1069.64 823.09 1068.57C822.04 1067.85 822.04 1040.1 823.09 985.31Z" />
					<g id="&lt;Group&gt;">
						<path id="&lt;Path&gt;" class="shp6" d="M1849.25 1094.88L1912.55 1094.88C1925.35 1094.88 1935.73 1084.5 1935.73 1071.7L1935.73 689.35C1935.73 676.55 1925.35 666.17 1912.55 666.17L1849.25 666.17C1836.45 666.17 1826.07 676.55 1826.07 689.35L1826.07 1071.7C1826.07 1084.5 1836.45 1094.88 1849.25 1094.88Z" />
					</g>
					<path id="&lt;Path&gt;" class="shp8" d="M1430.9 985.31L1921.23 985.31C1965.36 985.31 2001.13 1021.05 2001.13 1065.14L2001.13 1346.6C2001.13 1458.82 1910.08 1549.79 1797.78 1549.79L1292.91 1552.88C1316.28 1546.66 1329.88 1540.19 1333.72 1533.47C1357.49 1491.92 1418.37 1385.12 1418.37 1381.34C1418.37 1378.21 1422.55 1246.2 1430.9 985.31Z" />
					<path id="&lt;Path&gt;" class="shp9" d="M887.31 1049.49L887.31 1323.75C887.31 1378.62 931.83 1423.09 986.73 1423.09L1267.26 1423.09C1322.16 1423.09 1366.68 1378.62 1366.68 1323.75L1366.68 1049.49C1366.68 1014.05 1395.43 985.31 1430.9 985.31C1466.38 985.31 1495.13 1014.05 1495.13 1049.49L1495.13 1330.82C1495.13 1454 1395.2 1553.85 1271.93 1553.85L982.06 1553.85C858.79 1553.85 758.86 1454 758.86 1330.82L758.86 1049.49C758.86 1014.05 787.61 985.31 823.09 985.31C858.56 985.31 887.31 1014.05 887.31 1049.49Z" />
					<g id="&lt;Group&gt;">
						<path id="&lt;Path&gt;" class="shp10" d="M879.3 1684.32L869.09 1766.26L814.1 1770.52L814.95 1694.53L879.3 1684.32Z" />
					</g>
					<g id="&lt;Group&gt;">
						<g id="&lt;Group&gt;">
							<path id="&lt;Path&gt;" class="shp11" d="M730.55 1830.5L880.76 1831.51C884.05 1831.53 886.69 1828.95 886.66 1825.74L886.62 1821.42C886.59 1818.21 883.91 1815.6 880.63 1815.57L730.41 1814.56C727.12 1814.54 724.48 1817.12 724.51 1820.33L724.55 1824.65C724.58 1827.85 727.26 1830.47 730.55 1830.5Z" />
						</g>
						<g id="&lt;Group&gt;">
							<path id="&lt;Path&gt;" class="shp6" d="M878.72 1767.16L884.48 1811.51C885.19 1816.98 882.11 1821.92 878 1821.89L735.14 1820.93C731.43 1820.9 727.75 1818.62 725.76 1814.35C723.72 1809.98 723.27 1803.4 729.58 1794.62C742.22 1777.05 784.2 1773.02 804.62 1758.09L871.16 1758.54C874.88 1758.56 878.08 1762.21 878.72 1767.16Z" />
						</g>
						<g id="&lt;Group&gt;">
							<path id="&lt;Path&gt;" class="shp12" d="M814.95 1783.89C815.98 1783.28 816.34 1781.58 815.73 1780.29C812.87 1774.19 803.98 1759.35 786.16 1762.27C785.13 1762.44 784.45 1763.77 784.64 1765.15L784.64 1765.19C784.82 1766.53 785.76 1767.41 786.76 1767.25C802.72 1764.69 810.29 1777.77 812.6 1782.88C813.09 1783.97 814.1 1784.4 814.95 1783.89Z" />
						</g>
						<g id="&lt;Group&gt;">
							<path id="&lt;Path&gt;" class="shp12" d="M800.16 1789.5C801.19 1788.88 801.55 1787.19 800.95 1785.89C798.09 1779.8 789.19 1764.96 771.38 1767.87C770.35 1768.04 769.66 1769.37 769.85 1770.75L769.86 1770.8C770.04 1772.13 770.97 1773.01 771.97 1772.85C787.93 1770.3 795.5 1783.38 797.82 1788.48C798.31 1789.57 799.31 1790 800.16 1789.5Z" />
						</g>
						<g id="&lt;Group&gt;">
							<path id="&lt;Path&gt;" class="shp12" d="M786.41 1794.72C787.44 1794.11 787.8 1792.42 787.19 1791.12C784.34 1785.03 775.44 1770.19 757.63 1773.1C756.6 1773.27 755.91 1774.6 756.1 1775.98L756.1 1776.03C756.29 1777.36 757.22 1778.24 758.22 1778.08C774.18 1775.53 781.75 1788.61 784.06 1793.71C784.56 1794.8 785.56 1795.23 786.41 1794.72Z" />
						</g>
						<g id="&lt;Group&gt;" style="opacity: 0.302;mix-blend-mode: multiply">
							<path id="&lt;Path&gt;" class="shp13" d="M839.87 1821.63C850.81 1785.91 870.17 1782.09 880.78 1782.98L884.48 1811.51C885.19 1816.98 882.11 1821.92 878 1821.89L839.87 1821.63Z" />
						</g>
					</g>
					<g id="&lt;Group&gt;">
						<path id="&lt;Path&gt;" class="shp10" d="M984.02 1686.06L959.71 1765.13L903.75 1765.52L913.5 1707.8L984.02 1686.06Z" />
					</g>
					<path id="&lt;Path&gt;" class="shp14" d="M1479.83 486.84C1490.98 430.66 1480.26 392.68 1447.7 372.92C1398.86 343.28 1348.53 348.52 1314.88 368.47C1281.24 388.43 1263.23 454.54 1280.1 491.37L1392.8 451.71L1479.83 486.84Z" />
					<g id="&lt;Group&gt;">
						<g id="&lt;Group&gt;">
							<path id="&lt;Path&gt;" class="shp11" d="M823.37 1831.96L973.59 1832.97C976.88 1833 979.51 1830.41 979.49 1827.21L979.45 1822.88C979.42 1819.68 976.74 1817.06 973.45 1817.04L823.23 1816.03C819.95 1816 817.31 1818.59 817.34 1821.79L817.38 1826.12C817.41 1829.32 820.09 1831.94 823.37 1831.96Z" />
						</g>
						<path id="&lt;Path&gt;" class="shp8" d="M971.55 1768.62L977.31 1812.97C978.02 1818.44 974.93 1823.38 970.82 1823.36L827.97 1822.39C824.26 1822.37 820.57 1820.08 818.59 1815.82C816.55 1811.44 816.09 1804.87 822.41 1796.09C835.04 1778.51 877.03 1774.49 897.45 1759.55L963.99 1760C967.71 1760.03 970.91 1763.68 971.55 1768.62Z" />
						<g id="&lt;Group&gt;">
							<path id="&lt;Path&gt;" class="shp12" d="M907.78 1785.36C908.8 1784.74 909.17 1783.05 908.56 1781.75C905.7 1775.66 896.8 1760.82 878.99 1763.74C877.96 1763.9 877.27 1765.23 877.46 1766.62L877.47 1766.66C877.65 1768 878.59 1768.88 879.58 1768.71C895.55 1766.16 903.11 1779.24 905.43 1784.34C905.92 1785.43 906.92 1785.86 907.78 1785.36Z" />
						</g>
						<g id="&lt;Group&gt;">
							<path id="&lt;Path&gt;" class="shp12" d="M892.99 1790.96C894.02 1790.35 894.38 1788.65 893.77 1787.35C890.91 1781.27 882.02 1766.42 864.21 1769.34C863.18 1769.51 862.49 1770.84 862.68 1772.22L862.68 1772.26C862.86 1773.6 863.8 1774.48 864.8 1774.32C880.76 1771.76 888.33 1784.84 890.64 1789.95C891.14 1791.04 892.14 1791.47 892.99 1790.96Z" />
						</g>
						<g id="&lt;Group&gt;">
							<path id="&lt;Path&gt;" class="shp12" d="M879.24 1796.19C880.27 1795.58 880.63 1793.88 880.02 1792.58C877.16 1786.49 868.27 1771.65 850.45 1774.57C849.42 1774.74 848.74 1776.07 848.93 1777.45L848.93 1777.49C849.11 1778.83 850.05 1779.71 851.05 1779.55C867.01 1776.99 874.58 1790.07 876.89 1795.18C877.38 1796.27 878.39 1796.7 879.24 1796.19Z" />
						</g>
						<g id="&lt;Group&gt;" style="opacity: 0.302;mix-blend-mode: multiply">
							<path id="&lt;Path&gt;" class="shp13" d="M932.7 1823.1C943.64 1787.38 963 1783.55 973.61 1784.45L977.31 1812.97C978.02 1818.44 974.93 1823.38 970.82 1823.36L932.7 1823.1Z" />
						</g>
					</g>
					<g id="&lt;Group&gt;">
						<path id="&lt;Path&gt;" class="shp10" d="M1428.2 563.54L1436.36 657.65L1350.92 653.68L1360.77 570.34L1428.2 563.54Z" />
					</g>
					<g id="&lt;Group&gt;">
						<path id="&lt;Path&gt;" class="shp15" d="M1356.09 609.97L1360.77 570.34L1428.2 563.54L1431.02 596.13C1417.62 609.11 1393.51 622.57 1356.09 609.97Z" />
					</g>
					<g id="&lt;Group&gt;">
						<path id="&lt;Path&gt;" class="shp15" d="M1303.7 500.12C1308.84 510.45 1306.11 522.06 1297.61 526.06C1289.11 530.05 1278.06 524.92 1272.92 514.59C1267.78 504.26 1270.51 492.65 1279.01 488.66C1287.51 484.66 1298.56 489.8 1303.7 500.12Z" />
					</g>
					<g id="&lt;Group&gt;">
						<path id="&lt;Path&gt;" class="shp10" d="M1310.88 561.95C1307.86 557.55 1305.25 552.84 1303.08 547.87C1296.97 534.56 1293.39 520.24 1291.3 507.69C1290.86 505 1290.25 502.34 1289.59 499.68C1286.93 488.97 1286.22 477.49 1288.07 465.52C1294.01 427.01 1325.88 396.31 1365.56 390.98C1419.02 383.79 1466.12 422.27 1469.44 473.23C1474.94 469.8 1481.3 468.69 1487.09 470.79C1498.21 474.82 1503.02 489.04 1497.84 502.55C1492.66 516.05 1479.45 523.74 1468.33 519.71C1466.79 519.15 1465.38 518.38 1464.09 517.46C1462.37 561.09 1428.01 596.82 1384.13 598.81C1362.66 599.79 1342.7 592.52 1327.2 579.79C1326.17 579.05 1325.08 578.18 1323.94 577.17C1318.9 572.7 1314.59 567.53 1310.88 561.95Z" />
					</g>
					<path id="&lt;Path&gt;" class="shp16" d="M1388.14 485.95C1388.34 490.23 1392.08 493.53 1396.47 493.33C1400.87 493.13 1404.26 489.5 1404.06 485.23C1403.85 480.96 1400.12 477.65 1395.73 477.85C1391.33 478.05 1387.93 481.68 1388.14 485.95Z" />
					<path id="&lt;Path&gt;" class="shp16" d="M1319.99 493.42C1320.19 497.7 1323.93 501 1328.32 500.8C1332.72 500.6 1336.12 496.97 1335.91 492.7C1335.7 488.42 1331.97 485.12 1327.58 485.32C1323.18 485.52 1319.78 489.15 1319.99 493.42Z" />
					<path id="&lt;Path&gt;" class="shp14" d="M1378.13 468.46C1382.19 467.24 1386.01 466.31 1389.79 465.74C1393.56 465.18 1397.25 465.08 1400.86 465.5C1404.44 465.97 1408.04 466.72 1411.5 468.25C1413.34 468.81 1414.94 469.87 1416.8 470.62C1418.6 471.49 1420.26 472.59 1422.27 473.45C1421.26 471.65 1420.09 469.89 1418.73 468.28C1417.23 466.82 1415.79 465.17 1413.91 464.06C1410.41 461.47 1406 459.99 1401.56 459.45C1397.09 458.92 1392.52 459.56 1388.47 461.14C1384.43 462.75 1380.74 465.14 1378.13 468.46Z" />
					<g id="&lt;Group&gt;">
						<path id="&lt;Path&gt;" class="shp11" d="M886.34 1576.3L1825.92 1576.3C1829.25 1576.3 1831.94 1573.6 1831.94 1570.28L1831.94 1553.85C1831.94 1550.52 1829.24 1547.82 1825.92 1547.82L886.34 1547.82C883.01 1547.82 880.32 1550.52 880.32 1553.84L880.32 1570.27C880.32 1573.6 883.02 1576.3 886.34 1576.3Z" />
					</g>
					<path id="&lt;Path&gt;" class="shp14" d="M1343.03 472.3C1339.81 469.54 1335.71 467.89 1331.43 467.07C1327.14 466.28 1322.53 466.52 1318.25 467.88C1314 469.25 1309.98 471.54 1307.06 474.74C1305.44 476.19 1304.36 478.07 1303.17 479.79C1302.16 481.63 1301.36 483.57 1300.74 485.52C1302.53 484.31 1303.94 482.91 1305.53 481.72C1307.2 480.63 1308.56 479.29 1310.26 478.39C1313.35 476.24 1316.73 474.83 1320.15 473.69C1323.6 472.59 1327.24 471.99 1331.06 471.84C1334.88 471.68 1338.81 471.87 1343.03 472.3Z" />
					<path id="&lt;Path&gt;" class="shp14" d="M1468.17 474.48C1471.55 471.41 1474.58 469.93 1477.26 470.05L1473.81 443.12L1464.52 427.17C1440.79 398.83 1428.51 384.31 1427.69 383.62C1426.46 382.58 1400.07 369.39 1398.45 368.73C1397.37 368.28 1384.85 370.29 1360.87 374.74C1318.13 367.92 1300.76 375.16 1308.78 396.44C1320.82 428.37 1367.95 443.56 1370.28 442.03C1365.05 437.39 1361.91 428.22 1360.84 414.51C1395.12 447.94 1458.33 471.02 1468.17 474.48Z" />
					<path id="&lt;Path&gt;" class="shp15" d="M1359.96 485.31C1357.63 488.97 1355.65 492.79 1353.85 496.7C1352.04 500.61 1350.47 504.63 1349.24 508.8C1348.67 510.9 1348.15 513.03 1348 515.33C1347.98 515.91 1347.98 516.5 1348.06 517.12C1348.09 517.43 1348.18 517.77 1348.25 518.09C1348.39 518.44 1348.48 518.78 1348.74 519.13C1348.87 519.31 1349.01 519.48 1349.15 519.64L1349.49 519.94C1349.72 520.12 1349.95 520.33 1350.18 520.49C1350.67 520.82 1351.14 521.16 1351.64 521.43C1353.6 522.6 1355.67 523.43 1357.77 524.15C1359.88 524.84 1362.01 525.42 1364.19 525.79C1360.22 523.95 1356.22 522.13 1352.81 519.73C1352.38 519.44 1352.01 519.1 1351.62 518.79L1351.08 518.29L1350.81 518.04C1350.79 517.99 1350.77 517.94 1350.74 517.91C1350.48 517.49 1350.45 516.42 1350.55 515.49C1350.75 513.54 1351.25 511.5 1351.84 509.5C1352.97 505.47 1354.42 501.47 1355.8 497.45C1357.22 493.43 1358.65 489.41 1359.96 485.31Z" />
					<g id="&lt;Group&gt;">
						<path id="&lt;Path&gt;" class="shp17" d="M1341.94 634.46C1297.34 636.34 1263.38 651.47 1240.07 679.84C1216.75 708.21 1172.03 861.56 1105.9 1139.89L1217.46 1127.98C1314.16 995.76 1362.52 927.95 1362.52 924.55C1362.52 921.14 1355.66 824.45 1341.94 634.46Z" />
					</g>
					<g id="&lt;Group&gt;">
						<path id="&lt;Path&gt;" class="shp10" d="M1473.42 635.12C1388.05 634.95 1344.7 634.91 1343.38 634.99C1341.4 635.12 1331.58 634.07 1327.96 637.86C1324.34 641.65 1318.1 662.5 1335.92 672.71C1353.73 682.93 1315.87 683.35 1364.19 691.86C1412.51 700.37 1398.03 711.87 1434.66 696.97C1471.29 682.07 1476 688.46 1477.26 675.27C1478.11 666.47 1476.82 653.09 1473.42 635.12Z" />
					</g>
					<g id="&lt;Group&gt;">
						<path id="&lt;Path&gt;" class="shp14" d="M1218.89 824.64C1226.32 757.65 1244.3 712.71 1264.44 682.61C1279.51 660.1 1302.32 644.46 1327.96 637.86C1328.08 638.3 1334.45 662.11 1367.36 665.9C1400.58 669.73 1472.15 635.04 1473.42 635.12L1473.43 635.11C1510.4 637.41 1542.37 644.36 1559.02 663.77C1592.24 702.5 1702.13 972.95 1699.58 1011.15C1697.87 1036.62 1687.22 1049.35 1667.63 1049.35L1366.68 1049.49L1366.68 1118.71L1148.37 1133.62C1154.46 1129.59 1197.85 1014.45 1218.89 824.64Z" />
					</g>
					<g id="&lt;Group&gt;">
						<g id="&lt;Group&gt;">
							<path id="&lt;Path&gt;" class="shp18" d="M1194.71 798.35C1193.43 798.4 1166.95 782.77 1115.25 751.46L1100.76 754.54L1105.9 758.33L1097.23 756.16L1083.14 758.33C1114.21 794.97 1130 813.82 1130.52 814.86C1131.31 816.42 1151.67 824.25 1153.24 825.03C1154.28 825.55 1168.11 816.66 1194.71 798.35Z" />
						</g>
						<path id="&lt;Path&gt;" class="shp18" d="M1318.8 760.85L1311.75 756.45L1308.52 758.65L1308.52 754.54L1304.12 751.46L1191.33 796.07C1215.41 811.34 1227.84 818.67 1228.63 818.09C1229.8 817.2 1294.13 805.47 1295.3 803.71C1296.09 802.53 1303.92 788.25 1318.8 760.85Z" />
						<g id="&lt;Group&gt;">
							<path id="&lt;Path&gt;" class="shp19" d="M1317.02 758.77L1189.18 800.14L1086.09 755.29C1079.83 752.57 1072.97 757.63 1073.73 764.4L1093.37 939.99C1093.69 942.9 1095.44 945.47 1098.05 946.84L1197.03 998.98L1286.69 965.82L1288.99 962.43L1300.62 960.66L1338.21 946.76C1341.57 945.51 1343.68 942.18 1343.38 938.61L1328.59 766.45C1328.11 760.76 1322.45 757.01 1317.02 758.77Z" />
						</g>
						<g id="&lt;Group&gt;">
							<path id="&lt;Path&gt;" class="shp20" d="M1317.02 758.77C1322.45 757.01 1328.11 760.76 1328.59 766.45L1343.36 938.39C1343.68 942.09 1341.48 945.55 1337.99 946.83L1300.62 960.66L1288.99 962.43L1286.69 965.82L1226.38 988.12C1217.13 986.34 1207.92 984.59 1198.74 982.87L1189.18 800.14L1317.02 758.77Z" />
						</g>
						<g id="&lt;Group&gt;">
							<path id="&lt;Path&gt;" class="shp20" d="M1170.1 821.13L1090.38 786.29L1092.93 822.49L1171.06 858.69L1170.1 821.13Z" />
						</g>
					</g>
					<g id="&lt;Group&gt;">
						<path id="&lt;Path&gt;" class="shp21" d="M1127.04 1119.15C947.09 1113.47 836.67 1129.93 795.78 1168.51C734.45 1226.39 794.08 1653.79 804.3 1693.74C829.29 1716.97 856.55 1724.04 886.08 1714.96C915.61 1705.88 924.69 1637.79 913.34 1510.68C909.93 1389.25 910.5 1320.02 915.04 1303C919.58 1285.97 953.09 1271.22 1015.56 1258.74C1112.1 1191.78 1157.53 1158.3 1151.85 1158.3C1146.17 1158.3 1137.9 1145.25 1127.04 1119.15Z" />
					</g>
					<g id="&lt;Group&gt;">
						<path id="&lt;Path&gt;" class="shp22" d="M1366.68 1110.96C1125.78 1082.37 988.87 1122.55 955.93 1231.5C922.99 1340.45 894.03 1502.74 869.04 1718.36C900.84 1737.66 938.32 1737.66 981.48 1718.36C1042.53 1486.85 1084.48 1359.74 1107.34 1337.04C1130.2 1314.35 1216.64 1309.92 1366.68 1323.75L1366.68 1110.96Z" />
					</g>
					<path id="&lt;Path&gt;" class="shp12" d="M1273.8 1007.05C1275.18 999.25 1277.13 991.58 1279.34 983.99C1281.59 976.41 1284.07 968.93 1287.06 961.55L1287.39 960.73L1288.3 960.68L1529.4 948.61C1528.5 941.3 1526.27 934.12 1523.84 927.09C1521.28 919.79 1518.36 912.62 1515.3 905.5C1509.15 891.28 1502.4 877.32 1495.41 863.47C1481.39 835.8 1466.48 808.58 1450.95 781.73L1451.2 781.58C1466.91 808.34 1482.02 835.46 1496.24 863.05C1503.32 876.86 1510.18 890.79 1516.45 905C1519.56 912.12 1522.54 919.3 1525.17 926.62C1527.75 933.95 1530.15 941.41 1531.06 949.27L1531.15 950.06L1530.33 950.1L1289.38 963.47C1286.61 970.42 1284.21 977.59 1282.08 984.8C1279.9 992.3 1277.97 999.88 1276.62 1007.56C1275.3 1015.24 1274.19 1022.99 1274.16 1030.75C1274.07 1038.16 1274.65 1045.6 1276.61 1052.7L1347.97 1050.62L1384.18 1049.61L1420.41 1049L1420.42 1049.35L1384.22 1050.79L1348.03 1052.33L1275.64 1055.33L1274.65 1055.37L1274.36 1054.42C1271.98 1046.7 1271.25 1038.65 1271.29 1030.7C1271.32 1022.73 1272.46 1014.85 1273.8 1007.05Z" />
					<g id="&lt;Group&gt;">
						<path id="&lt;Path&gt;" class="shp23" d="M1197.49 797.64L1206.74 990.17L1192.63 988.12L1182.69 797.64C1187.66 794.18 1192.6 794.18 1197.49 797.64Z" />
					</g>
					<g id="&lt;Group&gt;">
						<path id="&lt;Path&gt;" class="shp10" d="M1187.2 979.77C1199.13 985.02 1217.19 985.74 1241.39 981.93L1268.87 972.37C1272.71 974.99 1276.62 977.64 1280.49 980.22C1280.11 981.48 1279.71 982.73 1279.34 983.99C1277.13 991.58 1275.18 999.25 1273.8 1007.05C1272.46 1014.85 1271.32 1022.73 1271.29 1030.7C1271.28 1032.01 1271.33 1033.31 1271.37 1034.62L1267.5 1033.18C1262.83 1034.12 1254.36 1033.31 1242.63 1031.51C1229.24 1029.8 1208.07 1026.85 1198.81 1024.19C1192.15 1022.27 1189.25 1018.01 1188.02 1014.07C1182.75 1010.86 1182.26 1004.87 1182.89 1000.1C1182.74 999.8 1182.61 999.49 1182.51 999.19C1179.94 991.15 1181.38 989.07 1182.69 988.25C1181.75 987.28 1181.1 986.23 1180.81 985.09C1178.82 977.14 1180.95 975.37 1187.2 979.77Z" />
						<path id="&lt;Path&gt;" class="shp15" d="M1182.69 999.47C1184.84 1001.98 1187.63 1003.89 1190.52 1005.49C1193.43 1007.1 1196.58 1008.25 1199.77 1009.14C1203 1009.94 1206.29 1010.49 1209.59 1010.63C1211.24 1010.74 1212.9 1010.65 1214.55 1010.67C1216.19 1010.55 1217.83 1010.4 1219.46 1010.2C1216.17 1010.04 1212.92 1009.93 1209.69 1009.53C1206.46 1009.13 1203.27 1008.56 1200.14 1007.75C1197.02 1006.92 1193.97 1005.84 1191.02 1004.51C1188.09 1003.14 1185.24 1001.54 1182.69 999.47Z" />
						<path id="&lt;Path&gt;" class="shp15" d="M1187.98 1014.1C1190.33 1016.43 1193.25 1018.12 1196.27 1019.49C1199.29 1020.86 1202.52 1021.76 1205.78 1022.39C1209.05 1022.94 1212.37 1023.23 1215.68 1023.1C1217.34 1023.09 1218.98 1022.87 1220.62 1022.76C1222.25 1022.51 1223.88 1022.23 1225.49 1021.91C1222.2 1022 1218.94 1022.15 1215.69 1022C1212.44 1021.86 1209.22 1021.54 1206.03 1020.98C1202.85 1020.4 1199.73 1019.56 1196.68 1018.46C1193.65 1017.34 1190.69 1015.96 1187.98 1014.1Z" />
						<path id="&lt;Path&gt;" class="shp15" d="M1182.69 988.25C1184.84 990.76 1187.63 992.67 1190.52 994.27C1193.43 995.88 1196.58 997.03 1199.77 997.92C1203 998.72 1206.29 999.27 1209.59 999.41C1211.24 999.52 1212.9 999.43 1214.55 999.45C1216.19 999.33 1217.83 999.18 1219.46 998.98C1216.17 998.82 1212.92 998.71 1209.69 998.31C1206.46 997.91 1203.27 997.34 1200.14 996.53C1197.02 995.7 1193.97 994.62 1191.02 993.29C1188.09 991.92 1185.24 990.32 1182.69 988.25Z" />
					</g>
					<path id="&lt;Path&gt;" class="shp15" d="M1392.27 541.53C1384.77 542.41 1377.47 543.68 1370.13 544.71C1362.79 545.78 1355.53 546.65 1347.99 546.95C1355.34 548.93 1363.11 548.56 1370.54 547.55C1378 546.41 1385.35 544.59 1392.27 541.53Z" />
					<g id="&lt;Group&gt;">
						<g id="&lt;Group&gt;">
							<path id="&lt;Path&gt;" class="shp11" d="M1812.66 1832.43L1839.94 1832.43L1771.91 1565.3L1746.29 1571.82L1812.66 1832.43Z" />
						</g>
					</g>
					<g id="&lt;Group&gt;">
						<g id="&lt;Group&gt;">
							<g id="&lt;Group&gt;">
								<path id="&lt;Path&gt;" class="shp11" d="M1312.46 1832.43L1339.74 1832.43L1271.71 1565.3L1246.09 1571.82L1312.46 1832.43Z" />
							</g>
						</g>
					</g>
					<g id="&lt;Group&gt;">
						<g id="&lt;Group&gt;">
							<path id="&lt;Path&gt;" class="shp11" d="M1480.38 1832.43L1453.1 1832.43L1521.13 1565.3L1546.75 1571.82L1480.38 1832.43Z" />
						</g>
					</g>
				</g>
				<g id="&lt;Group&gt;">
					<path id="&lt;Path&gt;" class="shp19" d="M2145.31 1832.97L2167.83 1832.97L2167.83 1510.97L2145.31 1510.97L2145.31 1832.97Z" />
				</g>
				<g id="&lt;Group&gt;">
					<path id="&lt;Path&gt;" class="shp24" d="M2020.58 1832.97L2043.1 1832.97L2043.1 1510.97L2020.58 1510.97L2020.58 1832.97Z" />
				</g>
				<g id="&lt;Group&gt;">
					<path id="&lt;Path&gt;" class="shp19" d="M1705.72 1832.97L1683.2 1832.97L1683.2 1510.97L1705.72 1510.97L1705.72 1832.97Z" />
				</g>
				<g id="&lt;Group&gt;">
					<path id="&lt;Path&gt;" class="shp24" d="M1830.45 1832.97L1807.93 1832.97L1807.93 1510.97L1830.45 1510.97L1830.45 1832.97Z" />
				</g>
				<g id="&lt;Group&gt;">
					<path id="&lt;Path&gt;" class="shp19" d="M1647.79 1559.05L2203.47 1559.05L2203.47 1489.63L1647.79 1489.63L1647.79 1559.05Z" />
				</g>
				<g id="&lt;Group&gt;">
					<path id="&lt;Path&gt;" class="shp24" d="M1626.03 1494.76L2225.23 1494.76L2225.23 1467.97L1626.03 1467.97L1626.03 1494.76Z" />
				</g>
				<g id="&lt;Group&gt;">
					<g id="&lt;Group&gt;">
						<g id="&lt;Group&gt;">
							<path id="&lt;Path&gt;" class="shp25" d="M2047.51 1269.71L2057.21 1269.71C2055.62 1268.78 2053.63 1268.23 2051.47 1268.23L1808.52 1268.23C1795.81 1268.23 1785.5 1276.02 1785.5 1285.63L1785.5 1296.69C1785.5 1306.3 1795.81 1314.1 1808.52 1314.1L2048.76 1314.04L2047.51 1269.71Z" />
						</g>
						<g id="&lt;Group&gt;">
							<path id="&lt;Path&gt;" class="shp14" d="M1909.58 1268.27C1897.42 1268.27 1887.57 1275.72 1887.57 1284.92L1887.57 1297.41C1887.57 1306.6 1897.42 1314.06 1909.58 1314.06L2060.82 1314.06L2060.82 1311.26L2060.2 1311.26L2021.75 1308.51L2013.98 1285.45C2023.98 1276.96 2029.3 1272.6 2029.95 1272.38C2030.61 1272.16 2040.69 1271.72 2060.2 1271.05L2060.82 1271.05L2060.82 1268.27L1909.58 1268.27Z" />
						</g>
						<g id="&lt;Group&gt;">
							<path id="&lt;Path&gt;" class="shp18" d="M2051.01 1291.08C2051.01 1282.09 2054.08 1275.42 2060.22 1271.06L1912.67 1271.06C1901.51 1271.06 1892.46 1277.91 1892.46 1286.35L1892.46 1295.97C1892.46 1304.42 1901.51 1311.26 1912.67 1311.26L2060.22 1311.26C2054.08 1309.13 2051.01 1302.4 2051.01 1291.08Z" />
						</g>
						<g id="&lt;Group&gt;" style="mix-blend-mode: multiply">
							<path id="&lt;Path&gt;" class="shp18" d="M1892.46 1286.35L1892.46 1295.97C1892.46 1297.24 1892.66 1298.46 1893.05 1299.64C1898.02 1290.43 1907.56 1281.56 1925.72 1278.71C1953.98 1274.27 1998.81 1271.72 2060.22 1271.06L1912.67 1271.06C1901.51 1271.06 1892.46 1277.91 1892.46 1286.35Z" />
						</g>
					</g>
					<g id="&lt;Group&gt;">
						<g id="&lt;Group&gt;">
							<path id="&lt;Path&gt;" class="shp14" d="M2043.51 1361.39L2054.48 1361.39C2052.69 1360.23 2050.44 1359.54 2048 1359.54L1773.02 1359.54C1758.63 1359.54 1746.97 1369.3 1746.97 1381.33L1746.97 1395.17C1746.97 1407.2 1758.63 1416.96 1773.02 1416.96L2044.92 1416.88L2043.51 1361.39Z" />
						</g>
						<g id="&lt;Group&gt;">
							<path id="&lt;Path&gt;" class="shp26" d="M1887.4 1359.59C1873.64 1359.59 1862.48 1368.92 1862.48 1380.43L1862.48 1396.07C1862.48 1407.57 1873.64 1416.9 1887.4 1416.9L2058.58 1416.9L2058.58 1413.41L2057.87 1413.41L2014.35 1409.96L2005.56 1381.1C2016.87 1370.46 2022.9 1365.01 2023.64 1364.74C2024.38 1364.46 2035.79 1363.91 2057.87 1363.08L2058.58 1363.07L2058.58 1359.59L1887.4 1359.59Z" />
						</g>
						<g id="&lt;Group&gt;">
							<path id="&lt;Path&gt;" class="shp18" d="M2047.47 1388.14C2047.47 1376.89 2050.95 1368.54 2057.9 1363.09L1890.9 1363.09C1878.27 1363.09 1868.02 1371.66 1868.02 1382.23L1868.02 1394.27C1868.02 1404.84 1878.27 1413.41 1890.9 1413.41L2057.9 1413.41C2050.95 1410.73 2047.47 1402.31 2047.47 1388.14Z" />
						</g>
						<g id="&lt;Group&gt;" style="mix-blend-mode: multiply">
							<path id="&lt;Path&gt;" class="shp18" d="M1868.02 1382.23L1868.02 1394.27C1868.02 1395.85 1868.25 1397.39 1868.69 1398.86C1874.32 1387.33 1885.12 1376.23 1905.66 1372.66C1937.65 1367.1 1988.39 1363.91 2057.9 1363.09L1890.9 1363.09C1878.27 1363.09 1868.02 1371.66 1868.02 1382.23Z" />
						</g>
					</g>
					<g id="&lt;Group&gt;">
						<g id="&lt;Group&gt;">
							<path id="&lt;Path&gt;" class="shp27" d="M1751.67 1315.45L1740.69 1315.45C1742.48 1314.53 1744.73 1313.98 1747.18 1313.98L2022.26 1313.98C2036.65 1313.98 2048.32 1321.72 2048.32 1331.27L2048.32 1342.25C2048.32 1351.8 2036.65 1359.54 2022.26 1359.54L1750.25 1359.48L1751.67 1315.45Z" />
						</g>
						<g id="&lt;Group&gt;">
							<path id="&lt;Path&gt;" class="shp28" d="M1907.84 1314.02C1921.61 1314.02 1932.76 1321.42 1932.76 1330.56L1932.76 1342.97C1932.76 1352.1 1921.61 1359.5 1907.84 1359.5L1736.59 1359.5L1736.59 1356.72L1737.3 1356.72L1780.84 1353.99L1789.63 1331.09C1778.31 1322.65 1772.28 1318.32 1771.54 1318.1C1770.81 1317.89 1759.39 1317.45 1737.3 1316.79L1736.59 1316.78L1736.59 1314.02L1907.84 1314.02Z" />
						</g>
						<g id="&lt;Group&gt;">
							<path id="&lt;Path&gt;" class="shp18" d="M1747.7 1336.68C1747.7 1327.75 1744.22 1321.13 1737.27 1316.8L1904.33 1316.8C1916.98 1316.8 1927.22 1323.6 1927.22 1331.98L1927.22 1341.54C1927.22 1349.92 1916.98 1356.72 1904.33 1356.72L1737.27 1356.72C1744.22 1354.6 1747.7 1347.92 1747.7 1336.68Z" />
						</g>
						<g id="&lt;Group&gt;" style="mix-blend-mode: multiply">
							<path id="&lt;Path&gt;" class="shp18" d="M1927.22 1331.98L1927.22 1341.54C1927.22 1342.79 1926.99 1344.01 1926.56 1345.18C1920.92 1336.03 1910.12 1327.22 1889.57 1324.39C1857.57 1319.98 1806.8 1317.45 1737.27 1316.8L1904.33 1316.8C1916.98 1316.8 1927.22 1323.6 1927.22 1331.98Z" />
						</g>
						<g id="&lt;Group&gt;" style="opacity: 0.502">
							<path id="&lt;Path&gt;" class="shp26" d="M1997.93 1342.25L1997.93 1331.27C1997.93 1321.72 1986.26 1313.98 1971.87 1313.98L1997.99 1313.98C2012.38 1313.98 2024.05 1321.72 2024.05 1331.27L2024.05 1342.25C2024.05 1351.8 2012.38 1359.54 1997.99 1359.54L1972.21 1359.53C1986.45 1359.41 1997.93 1351.72 1997.93 1342.25Z" />
						</g>
					</g>
					<g id="&lt;Group&gt;">
						<path id="&lt;Path&gt;" class="shp27" d="M1748.95 1418.71L1737.12 1418.71C1739.05 1417.69 1741.48 1417.07 1744.11 1417.07L2040.66 1417.07C2056.17 1417.07 2068.75 1425.72 2068.75 1436.39L2068.75 1448.66C2068.75 1459.33 2056.17 1467.97 2040.66 1467.97L1747.43 1467.91L1748.95 1418.71Z" />
					</g>
					<g id="&lt;Group&gt;">
						<path id="&lt;Path&gt;" class="shp29" d="M1917.31 1417.12C1932.15 1417.12 1944.18 1425.39 1944.18 1435.59L1944.18 1449.46C1944.18 1459.66 1932.15 1467.93 1917.31 1467.93L1732.7 1467.93L1732.7 1464.83L1733.46 1464.83L1780.4 1461.77L1789.88 1436.18C1777.68 1426.76 1771.18 1421.92 1770.38 1421.68C1769.58 1421.44 1757.28 1420.95 1733.46 1420.21L1732.7 1420.2L1732.7 1417.12L1917.31 1417.12Z" />
					</g>
					<g id="&lt;Group&gt;">
						<path id="&lt;Path&gt;" class="shp18" d="M1744.67 1442.43C1744.67 1432.46 1740.93 1425.05 1733.43 1420.22L1913.53 1420.22C1927.16 1420.22 1938.21 1427.82 1938.21 1437.19L1938.21 1447.86C1938.21 1457.23 1927.16 1464.83 1913.53 1464.83L1733.43 1464.83C1740.93 1462.46 1744.67 1454.99 1744.67 1442.43Z" />
					</g>
					<g id="&lt;Group&gt;" style="mix-blend-mode: multiply">
						<path id="&lt;Path&gt;" class="shp18" d="M1938.21 1437.19L1938.21 1447.86C1938.21 1449.26 1937.95 1450.63 1937.49 1451.93C1931.41 1441.71 1919.77 1431.87 1897.61 1428.7C1863.12 1423.78 1808.39 1420.95 1733.43 1420.22L1913.53 1420.22C1927.16 1420.22 1938.21 1427.82 1938.21 1437.19Z" />
					</g>
				</g>
			</g>
		</g>
	</g>
</svg>